<svg width="1200" height="400" viewBox="0 0 1200 400" fill="none" xmlns="http://www.w3.org/2000/svg" role="img" aria-labelledby="title desc">
  <title id="title">SpotFinder Logo</title>
  <desc id="desc">Elegant smart parking logo with a location pin parking mark and the word SpotFinder.</desc>
  <defs>
    <linearGradient id="markGradient" x1="72" y1="42" x2="323" y2="323" gradientUnits="userSpaceOnUse">
      <stop offset="0" stop-color="#00E5FF"/>
      <stop offset="0.52" stop-color="#007BFF"/>
      <stop offset="1" stop-color="#10B981"/>
    </linearGradient>
    <linearGradient id="wordGradient" x1="382" y1="130" x2="1005" y2="236" gradientUnits="userSpaceOnUse">
      <stop offset="0" stop-color="#F8FAFC"/>
      <stop offset="0.58" stop-color="#D9F7FF"/>
      <stop offset="1" stop-color="#00E5FF"/>
    </linearGradient>
    <linearGradient id="orbitGradient" x1="68" y1="248" x2="329" y2="142" gradientUnits="userSpaceOnUse">
      <stop offset="0" stop-color="#10B981"/>
      <stop offset="1" stop-color="#00E5FF"/>
    </linearGradient>
    <filter id="softGlow" x="-24" y="-24" width="448" height="448" filterUnits="userSpaceOnUse" color-interpolation-filters="sRGB">
      <feFlood flood-opacity="0" result="BackgroundImageFix"/>
      <feColorMatrix in="SourceAlpha" type="matrix" values="0 0 0 0 0 0 0 0 0 0 0 0 0 0 0 0 0 0 127 0" result="hardAlpha"/>
      <feOffset/>
      <feGaussianBlur stdDeviation="14"/>
      <feComposite in2="hardAlpha" operator="out"/>
      <feColorMatrix type="matrix" values="0 0 0 0 0 0 0 0 0 0.898 0 0 0 0 1 0 0 0 0.45 0"/>
      <feBlend mode="normal" in2="BackgroundImageFix" result="effect1_dropShadow"/>
      <feBlend mode="normal" in="SourceGraphic" in2="effect1_dropShadow" result="shape"/>
    </filter>
  </defs>

  <rect width="1200" height="400" rx="44" fill="#0C111B"/>
  <path d="M0 0H1200V400H0V0Z" fill="url(#markGradient)" opacity="0.03"/>
  <circle cx="204" cy="202" r="142" fill="#00E5FF" opacity="0.05"/>
  <circle cx="204" cy="202" r="96" fill="#007BFF" opacity="0.04"/>

  <g filter="url(#softGlow)">
    <path d="M203.5 46C139.1 46 87 97.2 87 160.4C87 244.9 203.5 354 203.5 354C203.5 354 320 244.9 320 160.4C320 97.2 267.9 46 203.5 46Z" fill="url(#markGradient)"/>
    <path d="M203.5 77C156.1 77 117.7 114.7 117.7 161.1C117.7 223.2 203.5 303.5 203.5 303.5C203.5 303.5 289.3 223.2 289.3 161.1C289.3 114.7 250.9 77 203.5 77Z" fill="#0C111B"/>
    <path d="M166 118H218.8C252.2 118 274 137.1 274 166.5C274 196.5 251.1 216.4 216.8 216.4H197.4V247H166V118ZM215.2 188.9C231.4 188.9 241.2 180.5 241.2 167.3C241.2 154.4 231.4 146.7 215.4 146.7H197.4V188.9H215.2Z" fill="url(#markGradient)"/>
    <path d="M145 258C176.7 276.7 226 279.4 263 257" stroke="url(#orbitGradient)" stroke-width="13" stroke-linecap="round"/>
    <path d="M119 246C91 220 82.2 185.8 95 151" stroke="#00E5FF" stroke-width="8" stroke-linecap="round" opacity="0.6"/>
    <path d="M291 144C305.2 183.8 294.5 222.9 264 251" stroke="#10B981" stroke-width="8" stroke-linecap="round" opacity="0.6"/>
  </g>

  <g>
    <text x="378" y="192" fill="url(#wordGradient)" font-family="Poppins, Montserrat, Arial, sans-serif" font-size="86" font-weight="800" letter-spacing="0">SpotFinder</text>
    <rect x="382" y="222" width="330" height="5" rx="2.5" fill="url(#markGradient)"/>
    <text x="382" y="270" fill="#94A3B8" font-family="Poppins, Montserrat, Arial, sans-serif" font-size="25" font-weight="500" letter-spacing="6">SMART PARKING SYSTEM</text>
    <g transform="translate(985 136)">
      <rect x="0" y="0" width="112" height="112" rx="28" fill="#111827" stroke="#263244" stroke-width="2"/>
      <path d="M27 76H85" stroke="#00E5FF" stroke-width="7" stroke-linecap="round"/>
      <path d="M35 55H77C82.5 55 87 59.5 87 65V76H25V65C25 59.5 29.5 55 35 55Z" fill="#10B981"/>
      <path d="M41 55L48 41H64L72 55" stroke="#D9F7FF" stroke-width="6" stroke-linecap="round" stroke-linejoin="round"/>
      <circle cx="39" cy="77" r="8" fill="#0C111B" stroke="#D9F7FF" stroke-width="4"/>
      <circle cx="73" cy="77" r="8" fill="#0C111B" stroke="#D9F7FF" stroke-width="4"/>
    </g>
  </g>
</svg>
